STARTFONT 2.1
FONT -Tiny Pixels-Regular-R-Regular--7-7-75-75-c-80-iso10646-1
SIZE 7 75 75
FONTBOUNDINGBOX 6 8 0 -2
STARTPROPERTIES 9
FAMILY_NAME Tiny Pixels
WEIGHT_NAME Regular
FONT_VERSION Version 1.0
FOUNDRY Made with Bits'n'Picas by Kreative Software
FONT_ASCENT 5
FONT_DESCENT 2
CAP_HEIGHT 5
POINT_SIZE 7
X_HEIGHT 3
ENDPROPERTIES
CHARS 65
STARTCHAR U+0020
ENCODING 32
SWIDTH 666 0
DWIDTH 4 0
BBX 0 0 0 0
BITMAP
ENDCHAR
STARTCHAR U+002E
ENCODING 46
SWIDTH 333 0
DWIDTH 2 0
BBX 1 1 1 0
BITMAP
80
ENDCHAR
STARTCHAR U+0030
ENCODING 48
SWIDTH 666 0
DWIDTH 4 0
BBX 3 5 1 0
BITMAP
E0
A0
A0
A0
E0
ENDCHAR
STARTCHAR U+0031
ENCODING 49
SWIDTH 666 0
DWIDTH 4 0
BBX 3 5 1 0
BITMAP
40
C0
40
40
E0
ENDCHAR
STARTCHAR U+0032
ENCODING 50
SWIDTH 666 0
DWIDTH 4 0
BBX 3 5 1 0
BITMAP
E0
20
E0
80
E0
ENDCHAR
STARTCHAR U+0033
ENCODING 51
SWIDTH 666 0
DWIDTH 4 0
BBX 3 5 1 0
BITMAP
E0
20
E0
20
E0
ENDCHAR
STARTCHAR U+0034
ENCODING 52
SWIDTH 666 0
DWIDTH 4 0
BBX 3 5 1 0
BITMAP
A0
A0
E0
20
20
ENDCHAR
STARTCHAR U+0035
ENCODING 53
SWIDTH 666 0
DWIDTH 4 0
BBX 3 5 1 0
BITMAP
E0
80
C0
20
E0
ENDCHAR
STARTCHAR U+0036
ENCODING 54
SWIDTH 666 0
DWIDTH 4 0
BBX 3 5 1 0
BITMAP
E0
80
E0
A0
E0
ENDCHAR
STARTCHAR U+0037
ENCODING 55
SWIDTH 666 0
DWIDTH 4 0
BBX 3 5 1 0
BITMAP
E0
20
40
80
80
ENDCHAR
STARTCHAR U+0038
ENCODING 56
SWIDTH 666 0
DWIDTH 4 0
BBX 3 5 1 0
BITMAP
E0
A0
E0
A0
E0
ENDCHAR
STARTCHAR U+0039
ENCODING 57
SWIDTH 666 0
DWIDTH 4 0
BBX 3 5 1 0
BITMAP
E0
A0
E0
20
20
ENDCHAR
STARTCHAR U+0041
ENCODING 65
SWIDTH 666 0
DWIDTH 4 0
BBX 3 5 1 0
BITMAP
E0
A0
E0
A0
A0
ENDCHAR
STARTCHAR U+0042
ENCODING 66
SWIDTH 666 0
DWIDTH 4 0
BBX 3 5 1 0
BITMAP
C0
A0
C0
A0
C0
ENDCHAR
STARTCHAR U+0043
ENCODING 67
SWIDTH 666 0
DWIDTH 4 0
BBX 3 5 1 0
BITMAP
E0
80
80
80
E0
ENDCHAR
STARTCHAR U+0044
ENCODING 68
SWIDTH 666 0
DWIDTH 4 0
BBX 3 5 1 0
BITMAP
C0
A0
A0
A0
C0
ENDCHAR
STARTCHAR U+0045
ENCODING 69
SWIDTH 666 0
DWIDTH 4 0
BBX 3 5 1 0
BITMAP
E0
80
E0
80
E0
ENDCHAR
STARTCHAR U+0046
ENCODING 70
SWIDTH 666 0
DWIDTH 4 0
BBX 3 5 1 0
BITMAP
E0
80
C0
80
80
ENDCHAR
STARTCHAR U+0047
ENCODING 71
SWIDTH 666 0
DWIDTH 4 0
BBX 3 5 1 0
BITMAP
E0
80
80
A0
E0
ENDCHAR
STARTCHAR U+0048
ENCODING 72
SWIDTH 666 0
DWIDTH 4 0
BBX 3 5 1 0
BITMAP
A0
A0
E0
A0
A0
ENDCHAR
STARTCHAR U+0049
ENCODING 73
SWIDTH 666 0
DWIDTH 4 0
BBX 3 5 1 0
BITMAP
E0
40
40
40
E0
ENDCHAR
STARTCHAR U+004A
ENCODING 74
SWIDTH 666 0
DWIDTH 4 0
BBX 3 5 1 0
BITMAP
E0
40
40
40
C0
ENDCHAR
STARTCHAR U+004B
ENCODING 75
SWIDTH 833 0
DWIDTH 5 0
BBX 4 5 1 0
BITMAP
90
A0
C0
A0
90
ENDCHAR
STARTCHAR U+004C
ENCODING 76
SWIDTH 666 0
DWIDTH 4 0
BBX 3 5 1 0
BITMAP
80
80
80
80
E0
ENDCHAR
STARTCHAR U+004D
ENCODING 77
SWIDTH 1000 0
DWIDTH 6 0
BBX 5 5 1 0
BITMAP
F8
A8
A8
A8
A8
ENDCHAR
STARTCHAR U+004E
ENCODING 78
SWIDTH 833 0
DWIDTH 5 0
BBX 4 5 1 0
BITMAP
90
D0
B0
90
90
ENDCHAR
STARTCHAR U+004F
ENCODING 79
SWIDTH 833 0
DWIDTH 5 0
BBX 4 5 1 0
BITMAP
60
90
90
90
60
ENDCHAR
STARTCHAR U+0050
ENCODING 80
SWIDTH 666 0
DWIDTH 4 0
BBX 3 5 1 0
BITMAP
E0
A0
E0
80
80
ENDCHAR
STARTCHAR U+0051
ENCODING 81
SWIDTH 833 0
DWIDTH 5 0
BBX 4 5 1 0
BITMAP
60
90
90
B0
50
ENDCHAR
STARTCHAR U+0052
ENCODING 82
SWIDTH 666 0
DWIDTH 4 0
BBX 3 5 1 0
BITMAP
E0
A0
C0
A0
A0
ENDCHAR
STARTCHAR U+0053
ENCODING 83
SWIDTH 666 0
DWIDTH 4 0
BBX 3 5 1 0
BITMAP
E0
80
E0
20
E0
ENDCHAR
STARTCHAR U+0054
ENCODING 84
SWIDTH 666 0
DWIDTH 4 0
BBX 3 5 1 0
BITMAP
E0
40
40
40
40
ENDCHAR
STARTCHAR U+0055
ENCODING 85
SWIDTH 666 0
DWIDTH 4 0
BBX 3 5 1 0
BITMAP
A0
A0
A0
A0
E0
ENDCHAR
STARTCHAR U+0056
ENCODING 86
SWIDTH 666 0
DWIDTH 4 0
BBX 3 5 1 0
BITMAP
A0
A0
A0
A0
40
ENDCHAR
STARTCHAR U+0057
ENCODING 87
SWIDTH 1000 0
DWIDTH 6 0
BBX 5 5 1 0
BITMAP
A8
A8
A8
A8
70
ENDCHAR
STARTCHAR U+0058
ENCODING 88
SWIDTH 1000 0
DWIDTH 6 0
BBX 5 5 1 0
BITMAP
88
50
20
50
88
ENDCHAR
STARTCHAR U+0059
ENCODING 89
SWIDTH 666 0
DWIDTH 4 0
BBX 3 5 1 0
BITMAP
A0
A0
A0
40
40
ENDCHAR
STARTCHAR U+005A
ENCODING 90
SWIDTH 666 0
DWIDTH 4 0
BBX 3 5 1 0
BITMAP
E0
20
40
80
E0
ENDCHAR
STARTCHAR U+0061
ENCODING 97
SWIDTH 666 0
DWIDTH 4 0
BBX 3 4 1 0
BITMAP
E0
60
A0
E0
ENDCHAR
STARTCHAR U+0062
ENCODING 98
SWIDTH 666 0
DWIDTH 4 0
BBX 3 5 1 0
BITMAP
80
80
E0
A0
E0
ENDCHAR
STARTCHAR U+0063
ENCODING 99
SWIDTH 666 0
DWIDTH 4 0
BBX 3 4 1 0
BITMAP
E0
80
80
E0
ENDCHAR
STARTCHAR U+0064
ENCODING 100
SWIDTH 666 0
DWIDTH 4 0
BBX 3 6 1 0
BITMAP
20
20
E0
A0
A0
E0
ENDCHAR
STARTCHAR U+0065
ENCODING 101
SWIDTH 666 0
DWIDTH 4 0
BBX 3 4 1 0
BITMAP
E0
A0
C0
E0
ENDCHAR
STARTCHAR U+0066
ENCODING 102
SWIDTH 666 0
DWIDTH 4 0
BBX 2 5 1 -1
BITMAP
C0
80
C0
80
80
ENDCHAR
STARTCHAR U+0067
ENCODING 103
SWIDTH 666 0
DWIDTH 4 0
BBX 3 5 1 -1
BITMAP
E0
A0
E0
20
E0
ENDCHAR
STARTCHAR U+0068
ENCODING 104
SWIDTH 666 0
DWIDTH 4 0
BBX 3 6 1 0
BITMAP
80
80
E0
A0
A0
A0
ENDCHAR
STARTCHAR U+0069
ENCODING 105
SWIDTH 333 0
DWIDTH 2 0
BBX 1 5 1 0
BITMAP
80
00
80
80
80
ENDCHAR
STARTCHAR U+006A
ENCODING 106
SWIDTH 666 0
DWIDTH 4 0
BBX 3 7 1 -2
BITMAP
20
00
20
20
20
A0
40
ENDCHAR
STARTCHAR U+006B
ENCODING 107
SWIDTH 666 0
DWIDTH 4 0
BBX 3 5 1 0
BITMAP
80
80
A0
C0
A0
ENDCHAR
STARTCHAR U+006C
ENCODING 108
SWIDTH 500 0
DWIDTH 3 0
BBX 2 5 1 0
BITMAP
C0
40
40
40
40
ENDCHAR
STARTCHAR U+006D
ENCODING 109
SWIDTH 1000 0
DWIDTH 6 0
BBX 5 4 1 0
BITMAP
80
D0
A8
A8
ENDCHAR
STARTCHAR U+006E
ENCODING 110
SWIDTH 666 0
DWIDTH 4 0
BBX 3 4 1 0
BITMAP
E0
A0
A0
A0
ENDCHAR
STARTCHAR U+006F
ENCODING 111
SWIDTH 666 0
DWIDTH 4 0
BBX 3 4 1 0
BITMAP
E0
A0
A0
E0
ENDCHAR
STARTCHAR U+0070
ENCODING 112
SWIDTH 666 0
DWIDTH 4 0
BBX 3 5 1 -2
BITMAP
E0
A0
E0
80
80
ENDCHAR
STARTCHAR U+0071
ENCODING 113
SWIDTH 666 0
DWIDTH 4 0
BBX 3 5 1 -2
BITMAP
E0
A0
E0
20
20
ENDCHAR
STARTCHAR U+0072
ENCODING 114
SWIDTH 666 0
DWIDTH 4 0
BBX 3 4 1 0
BITMAP
C0
A0
80
80
ENDCHAR
STARTCHAR U+0073
ENCODING 115
SWIDTH 500 0
DWIDTH 3 0
BBX 2 4 1 0
BITMAP
C0
80
40
C0
ENDCHAR
STARTCHAR U+0074
ENCODING 116
SWIDTH 666 0
DWIDTH 4 0
BBX 3 5 1 0
BITMAP
40
E0
40
40
40
ENDCHAR
STARTCHAR U+0075
ENCODING 117
SWIDTH 666 0
DWIDTH 4 0
BBX 3 3 1 0
BITMAP
A0
A0
E0
ENDCHAR
STARTCHAR U+0076
ENCODING 118
SWIDTH 666 0
DWIDTH 4 0
BBX 3 4 1 0
BITMAP
A0
A0
A0
40
ENDCHAR
STARTCHAR U+0077
ENCODING 119
SWIDTH 1000 0
DWIDTH 6 0
BBX 5 3 1 0
BITMAP
A8
A8
50
ENDCHAR
STARTCHAR U+0078
ENCODING 120
SWIDTH 666 0
DWIDTH 4 0
BBX 3 3 1 0
BITMAP
A0
40
A0
ENDCHAR
STARTCHAR U+0079
ENCODING 121
SWIDTH 666 0
DWIDTH 4 0
BBX 3 5 1 -1
BITMAP
A0
A0
A0
40
80
ENDCHAR
STARTCHAR U+007A
ENCODING 122
SWIDTH 666 0
DWIDTH 4 0
BBX 3 4 1 0
BITMAP
E0
20
40
E0
ENDCHAR
STARTCHAR U+00A9
ENCODING 169
SWIDTH 1000 0
DWIDTH 6 0
BBX 6 5 0 0
BITMAP
78
B4
A4
B4
78
ENDCHAR
ENDFONT
